<svg xmlns="http://www.w3.org/2000/svg" viewBox="0 0 100 100" role="img" aria-label="Three views completing a circle">
  <g transform="translate(0,-7.56)">
    <polygon points="76.2,68.4 72.2,73.0 67.4,76.8 62.0,79.7 56.1,81.4 50.0,82.0 43.9,81.4 38.0,79.7 32.6,76.8 27.8,73.0 23.8,68.4 50.0,97.0" fill="#cf7368"/>
    <polygon points="21.0,63.5 19.0,57.7 18.0,51.7 18.3,45.5 19.7,39.6 22.3,34.0 25.8,29.0 30.3,24.8 35.5,21.5 41.2,19.2 47.2,18.1 9.3,26.5" fill="#2f8e77"/>
    <polygon points="52.8,18.1 58.8,19.2 64.5,21.5 69.7,24.8 74.2,29.0 77.7,34.0 80.3,39.6 81.7,45.5 82.0,51.7 81.0,57.7 79.0,63.5 90.7,26.5" fill="#9c6c9a"/>
  </g>
</svg>
