<svg xmlns="http://www.w3.org/2000/svg" viewBox="0 0 100 100" role="img" aria-label="Three views completing a circle">
  <style>
    .mark { fill: #171717; }
    @media (prefers-color-scheme: dark) { .mark { fill: #eef0f1; } }
  </style>
  <g class="mark" transform="translate(0,-7.65)">
    <polygon points="75.2,69.7 70.1,74.9 64,78.8 57.2,81.2 50,82 42.8,81.2 36,78.8 29.9,74.9 24.8,69.7 50,97"/>
    <polygon points="20.3,62 18.4,55 18.1,47.8 19.4,40.7 22.3,34 26.6,28.2 32.1,23.5 38.5,20.1 45.6,18.3 9.3,26.5"/>
    <polygon points="54.4,18.3 61.5,20.1 67.9,23.5 73.4,28.2 77.7,34 80.6,40.7 81.9,47.8 81.6,55 79.7,62 90.7,26.5"/>
  </g>
</svg>
