<svg xmlns="http://www.w3.org/2000/svg" viewBox="0 0 100 100" role="img" aria-label="Three views completing a circle">
  <g transform="translate(0,-7.66)">
    <polygon points="75.2,69.7 70.8,74.4 65.5,78.0 59.5,80.5 53.2,81.8 46.8,81.8 40.5,80.5 34.5,78.0 29.2,74.4 24.8,69.7 50.0,97.0" fill="#3e9a82"/>
    <polygon points="20.3,62.0 18.5,55.8 18.0,49.4 18.8,43.0 20.8,36.9 24.0,31.3 28.3,26.5 33.5,22.6 39.3,19.8 45.5,18.3 9.3,26.5" fill="#2e7e8e"/>
    <polygon points="54.5,18.3 60.7,19.8 66.5,22.6 71.7,26.5 76.0,31.3 79.2,36.9 81.2,43.0 82.0,49.4 81.5,55.8 79.7,62.0 90.7,26.5" fill="#2a5688"/>
  </g>
</svg>
